<?xml version="1.0" encoding="UTF-8" ?>
<!DOCTYPE svg PUBLIC "-//W3C//DTD SVG 1.1//EN" "http://www.w3.org/Graphics/SVG/1.1/DTD/svg11.dtd">
<svg width="1200pt" height="1200pt" viewBox="0 0 1200 1200" version="1.1" xmlns="http://www.w3.org/2000/svg">
<g id="#883f93ff">
<path fill="#883f93" opacity="1.00" d=" M 570.32 245.71 C 570.33 195.97 570.23 146.22 570.36 96.48 C 592.31 96.61 614.26 96.49 636.21 96.54 C 636.22 146.26 636.20 195.97 636.22 245.69 C 614.56 241.37 591.92 240.76 570.32 245.71 Z" />
<path fill="#883f93" opacity="1.00" d=" M 359.17 211.30 C 374.80 195.83 390.10 180.01 405.95 164.77 C 440.95 199.97 476.12 234.99 511.20 270.10 C 492.87 282.48 476.46 298.04 464.56 316.78 C 429.51 281.54 394.28 246.48 359.17 211.30 Z" />
<path fill="#883f93" opacity="1.00" d=" M 291.01 375.83 C 340.73 375.83 390.44 375.83 440.16 375.83 C 435.80 397.50 435.26 420.14 440.16 441.76 C 390.45 441.77 340.73 441.76 291.01 441.77 C 291.00 419.79 291.00 397.81 291.01 375.83 Z" />
<path fill="#883f93" opacity="1.00" d=" M 464.48 500.83 C 476.99 519.05 492.38 535.66 511.24 547.40 C 476.13 582.61 440.92 617.72 405.77 652.89 C 390.25 637.34 374.70 621.83 359.16 606.29 C 394.24 571.11 429.52 536.13 464.48 500.83 Z" />
</g>
<g id="#0097d5ff">
<path fill="#0097d5" opacity="1.00" d=" M 782.70 182.75 C 788.81 176.79 794.62 170.52 800.93 164.77 C 816.29 180.41 831.97 195.74 847.35 211.37 C 812.14 246.45 777.05 281.65 741.89 316.78 C 729.65 298.39 714.05 281.97 695.28 270.17 C 724.42 241.03 753.57 211.89 782.70 182.75 Z" />
<path fill="#0097d5" opacity="1.00" d=" M 766.35 375.83 C 816.05 375.79 865.74 375.91 915.44 375.77 C 915.64 397.77 915.47 419.77 915.53 441.76 C 865.80 441.75 816.07 441.81 766.34 441.74 C 770.72 420.09 771.25 397.44 766.35 375.83 Z" />
<path fill="#0097d5" opacity="1.00" d=" M 695.29 547.41 C 713.69 535.20 730.07 519.56 741.88 500.81 C 777.06 535.92 812.12 571.15 847.34 606.21 C 831.92 621.87 816.28 637.33 800.76 652.90 C 765.60 617.73 730.43 582.59 695.29 547.41 Z" />
<path fill="#0097d5" opacity="1.00" d=" M 570.30 571.91 C 591.97 576.21 614.60 576.81 636.21 571.88 C 636.22 621.60 636.22 671.31 636.21 721.03 C 614.24 721.02 592.27 721.07 570.30 721.00 C 570.31 671.30 570.30 621.61 570.30 571.91 Z" />
</g>
<g id="#e09142ff">
<path fill="#e09142" opacity="1.00" d=" M 586.94 277.96 C 622.59 273.49 659.83 284.61 687.60 307.31 C 705.69 322.09 718.99 342.05 727.69 363.60 C 707.50 373.01 687.19 382.17 666.94 391.45 C 662.81 378.05 655.20 365.46 644.00 356.83 C 629.21 345.39 609.42 340.51 591.03 344.03 C 565.10 348.58 543.33 370.19 538.58 396.08 C 535.72 410.63 537.89 426.13 544.80 439.26 C 552.81 454.74 567.21 466.76 583.90 471.82 C 608.81 479.68 638.22 471.05 654.41 450.43 C 660.15 443.26 664.17 434.87 666.94 426.15 C 687.18 435.39 707.42 444.64 727.65 453.90 C 716.98 481.19 698.11 505.64 672.81 520.79 C 655.28 531.44 635.32 537.94 614.94 540.07 C 581.33 543.32 546.70 532.73 520.52 511.43 C 493.05 489.44 475.01 456.08 471.98 420.99 C 468.66 386.85 479.40 351.63 501.30 325.21 C 522.42 299.29 553.71 281.92 586.94 277.96 Z" />
</g>
<g id="#000000ff">
<path fill="#000000" opacity="1.00" d=" M 114.13 834.12 C 125.86 820.38 142.92 811.38 160.90 809.53 C 178.15 807.73 196.58 810.84 210.82 821.21 C 227.38 833.11 236.23 852.74 240.55 872.13 C 233.06 873.58 225.63 875.29 218.11 876.57 C 215.43 862.70 209.61 848.70 198.65 839.34 C 186.75 829.07 169.35 826.76 154.61 831.46 C 141.51 835.61 131.38 846.23 125.43 858.35 C 116.79 875.83 114.65 895.74 115.00 915.01 C 115.47 933.04 118.40 951.60 127.50 967.44 C 133.75 978.38 143.84 987.48 156.16 990.85 C 170.51 994.79 187.09 992.48 198.60 982.63 C 209.93 972.98 215.96 958.60 219.22 944.39 C 226.56 945.73 233.82 947.55 241.12 949.10 C 237.39 965.68 230.59 982.17 218.38 994.34 C 208.72 1004.12 195.68 1010.20 182.13 1012.12 C 162.09 1015.01 140.48 1011.19 124.09 998.85 C 108.76 987.53 99.02 970.08 94.07 951.95 C 88.86 932.79 87.90 912.63 89.89 892.93 C 92.16 871.59 99.75 850.34 114.13 834.12 Z" />
<path fill="#000000" opacity="1.00" d=" M 733.33 817.30 C 749.46 810.12 767.42 807.92 784.95 808.64 C 802.25 809.41 819.84 814.40 833.53 825.33 C 844.14 833.65 851.79 845.20 856.78 857.63 C 840.17 862.63 823.43 867.19 806.81 872.15 C 804.12 866.54 800.80 860.92 795.45 857.46 C 788.90 853.09 780.73 852.10 773.03 852.41 C 766.60 852.78 759.54 855.37 756.26 861.27 C 753.44 866.16 755.04 873.21 760.27 875.77 C 768.53 880.08 778.02 881.00 786.92 883.39 C 805.06 887.99 824.35 891.03 839.99 902.03 C 850.56 909.13 858.17 920.41 860.71 932.90 C 864.54 950.02 860.52 968.75 849.56 982.51 C 837.01 998.33 817.81 1007.79 798.17 1011.24 C 781.55 1014.08 764.40 1013.49 747.91 1010.10 C 731.77 1006.67 716.06 999.45 704.41 987.54 C 695.04 978.11 688.74 965.92 685.57 953.07 C 703.96 949.59 722.34 946.04 740.74 942.64 C 742.53 949.41 746.12 955.93 751.89 960.11 C 759.62 965.80 769.56 967.24 778.93 967.19 C 785.36 967.06 792.38 965.84 797.17 961.19 C 802.34 956.27 801.23 946.62 795.20 942.88 C 790.68 939.99 785.36 938.88 780.23 937.62 C 760.45 933.04 740.21 928.71 722.23 918.88 C 711.01 912.78 701.00 903.25 697.16 890.77 C 692.37 875.00 694.41 857.13 703.00 843.00 C 709.98 831.43 721.06 822.74 733.33 817.30 Z" />
<path fill="#000000" opacity="1.00" d=" M 641.08 813.00 C 648.26 813.01 655.43 812.96 662.61 813.03 C 662.52 878.49 662.69 943.95 662.53 1009.40 C 655.38 1009.32 648.23 1009.39 641.09 1009.37 C 641.08 943.91 641.08 878.46 641.08 813.00 Z" />
<path fill="#000000" opacity="1.00" d=" M 269.76 874.70 C 282.83 863.11 301.06 860.11 317.97 859.99 C 332.21 859.89 347.86 862.23 358.50 872.58 C 369.18 883.06 371.97 898.75 372.44 913.11 C 372.63 936.39 372.42 959.68 372.55 982.96 C 372.66 991.88 373.63 1000.87 376.45 1009.37 C 369.20 1009.37 361.95 1009.35 354.70 1009.38 C 352.26 1000.47 351.34 991.21 351.30 982.00 C 345.44 993.39 335.98 1003.11 324.10 1008.14 C 310.54 1013.95 294.78 1014.18 280.88 1009.41 C 268.61 1005.22 258.03 995.62 253.84 983.21 C 249.68 970.78 250.73 956.21 258.10 945.17 C 265.52 934.13 278.08 927.98 290.52 924.41 C 310.25 918.94 330.95 918.36 351.29 919.09 C 351.34 909.21 351.98 898.41 346.11 889.87 C 340.43 881.34 329.74 878.22 320.00 877.70 C 309.15 877.16 297.41 877.93 288.13 884.19 C 281.80 888.39 278.01 895.43 276.28 902.68 C 269.37 901.54 262.40 900.83 255.55 899.37 C 258.02 890.09 262.42 881.08 269.76 874.70 M 310.99 936.96 C 300.76 938.73 290.08 941.89 282.56 949.44 C 275.00 956.97 273.32 969.13 277.18 978.88 C 279.77 985.48 285.66 990.40 292.32 992.60 C 303.66 996.34 316.59 994.89 326.85 988.77 C 339.07 981.60 347.37 968.73 350.13 954.95 C 351.51 948.66 351.32 942.18 351.29 935.79 C 337.87 934.90 324.30 934.88 310.99 936.96 Z" />
<path fill="#000000" opacity="1.00" d=" M 428.41 864.37 C 440.29 858.91 454.24 858.76 466.65 862.51 C 477.92 865.94 486.94 874.98 491.19 885.86 C 497.31 900.44 496.54 916.54 496.52 932.01 C 496.49 957.80 496.58 983.60 496.47 1009.39 C 489.51 1009.34 482.55 1009.38 475.59 1009.36 C 475.56 977.91 475.61 946.45 475.57 914.99 C 475.46 905.58 473.84 895.60 467.90 888.00 C 463.44 882.18 456.32 878.81 449.09 878.25 C 437.88 877.11 426.40 881.43 418.51 889.44 C 406.85 900.95 402.97 918.07 403.73 933.99 C 403.74 959.11 403.72 984.23 403.74 1009.35 C 396.66 1009.38 389.59 1009.36 382.51 1009.36 C 382.50 960.89 382.50 912.41 382.51 863.94 C 389.11 863.93 395.71 863.92 402.30 863.94 C 402.32 872.84 402.30 881.74 402.31 890.64 C 408.63 879.94 416.87 869.69 428.41 864.37 Z" />
<path fill="#000000" opacity="1.00" d=" M 529.96 868.88 C 543.00 861.55 558.34 859.82 573.05 860.01 C 586.54 860.23 601.15 863.05 611.00 872.99 C 621.17 883.31 623.95 898.43 624.49 912.37 C 624.72 929.25 624.53 946.14 624.59 963.02 C 624.77 978.50 623.49 994.44 628.52 1009.37 C 621.26 1009.37 614.01 1009.36 606.77 1009.38 C 604.37 1000.46 603.37 991.21 603.39 982.00 C 597.73 992.89 588.87 1002.32 577.62 1007.48 C 564.43 1013.65 548.93 1014.25 535.06 1010.11 C 522.88 1006.49 511.99 997.82 507.00 985.98 C 501.72 973.42 502.26 958.18 509.36 946.43 C 515.99 935.60 527.71 929.13 539.50 925.35 C 560.10 918.95 581.97 918.36 603.37 919.08 C 603.42 909.21 604.05 898.39 598.17 889.85 C 592.67 881.60 582.41 878.39 572.96 877.77 C 562.05 877.10 550.30 877.76 540.82 883.77 C 534.16 887.93 530.13 895.20 528.36 902.69 C 521.51 901.67 514.67 900.59 507.81 899.62 C 510.32 886.81 518.48 875.18 529.96 868.88 M 560.88 937.35 C 551.35 939.21 541.50 942.44 534.54 949.54 C 527.09 957.04 525.44 969.05 529.19 978.73 C 531.75 985.37 537.64 990.35 544.32 992.57 C 556.08 996.49 569.54 994.78 579.98 988.12 C 591.77 980.76 599.68 968.04 602.29 954.51 C 603.57 948.35 603.39 942.03 603.36 935.78 C 589.21 934.88 574.87 934.83 560.88 937.35 Z" />
<path fill="#000000" opacity="1.00" d=" M 1078.50 868.57 C 1087.26 860.73 1099.85 859.27 1111.09 860.84 C 1111.08 877.80 1111.08 894.75 1111.09 911.70 C 1101.52 909.99 1090.76 909.76 1082.30 915.24 C 1074.90 920.14 1072.41 929.53 1072.35 937.94 C 1072.26 961.75 1072.34 985.56 1072.31 1009.36 C 1053.83 1009.37 1035.35 1009.37 1016.88 1009.36 C 1016.87 960.89 1016.87 912.41 1016.88 863.94 C 1033.09 863.93 1049.31 863.93 1065.52 863.94 C 1065.54 873.46 1065.51 882.98 1065.53 892.50 C 1068.02 883.73 1071.39 874.67 1078.50 868.57 Z" />
<path fill="#000000" opacity="1.00" d=" M 866.00 863.94 C 884.57 863.95 903.15 863.88 921.73 863.97 C 921.72 893.97 921.72 923.96 921.73 953.95 C 921.84 959.28 922.18 965.04 925.35 969.56 C 929.61 975.30 938.76 975.19 944.07 971.01 C 949.00 966.90 950.17 960.04 950.29 953.97 C 950.31 923.98 950.31 893.98 950.29 863.99 C 968.86 863.87 987.44 863.96 1006.02 863.94 C 1006.03 912.41 1006.03 960.89 1006.02 1009.36 C 988.81 1009.43 971.60 1009.25 954.39 1009.46 C 954.09 1002.66 954.37 995.86 954.24 989.07 C 950.93 994.89 946.99 1000.51 941.54 1004.53 C 932.91 1011.20 921.71 1013.63 910.97 1013.29 C 901.27 1013.07 891.13 1011.45 882.98 1005.85 C 876.26 1001.32 871.79 994.11 869.43 986.48 C 866.33 976.65 865.91 966.25 865.99 956.03 C 866.00 925.33 865.97 894.64 866.00 863.94 Z" />
<path fill="#000000" opacity="1.00" d=" M 1014.25 1031.42 C 1016.92 1031.42 1019.59 1031.42 1022.27 1031.45 C 1018.22 1036.85 1013.75 1041.92 1009.68 1047.31 C 1007.99 1047.36 1006.29 1047.37 1004.62 1047.43 C 1007.82 1042.08 1011.00 1036.73 1014.25 1031.42 Z" />
<path fill="#000000" opacity="1.00" d=" M 681.99 1102.16 C 689.26 1080.38 696.31 1058.52 703.74 1036.81 C 706.80 1036.87 709.87 1036.87 712.94 1036.88 C 720.04 1058.64 727.17 1080.40 734.28 1102.16 C 731.62 1102.20 728.95 1102.17 726.30 1102.07 C 724.32 1095.58 722.15 1089.16 720.08 1082.71 C 711.93 1082.63 703.78 1082.84 695.64 1082.59 C 693.20 1089.03 691.61 1095.75 689.30 1102.23 C 686.85 1102.16 684.42 1102.15 681.99 1102.16 M 697.52 1076.37 C 704.36 1076.30 711.20 1076.52 718.04 1076.25 C 714.48 1065.79 711.28 1055.21 707.76 1044.75 C 703.91 1055.12 701.00 1065.85 697.52 1076.37 Z" />
<path fill="#000000" opacity="1.00" d=" M 821.38 1037.04 C 823.71 1036.85 826.06 1036.80 828.42 1036.87 C 828.43 1058.63 828.43 1080.40 828.42 1102.17 C 826.25 1102.15 824.10 1102.16 821.95 1102.17 C 821.95 1099.02 821.92 1095.88 821.93 1092.74 C 820.11 1096.10 817.85 1099.43 814.42 1101.32 C 808.63 1104.71 800.80 1103.51 796.00 1098.94 C 790.31 1093.67 788.31 1085.56 788.37 1078.05 C 788.38 1070.52 790.43 1062.46 796.09 1057.17 C 800.90 1052.58 808.66 1051.24 814.57 1054.44 C 817.54 1055.92 819.64 1058.59 821.54 1061.23 C 821.33 1053.17 821.63 1045.10 821.38 1037.04 M 805.34 1059.44 C 799.76 1061.37 797.29 1067.52 796.60 1072.93 C 795.88 1079.61 796.12 1087.09 800.28 1092.69 C 803.72 1097.44 811.04 1098.19 815.61 1094.66 C 819.86 1091.56 821.54 1086.07 821.47 1081.01 C 821.40 1075.32 822.19 1069.04 818.86 1064.06 C 816.08 1059.67 810.19 1057.85 805.34 1059.44 Z" />
<path fill="#000000" opacity="1.00" d=" M 890.97 1036.87 C 893.33 1036.86 895.71 1036.86 898.10 1036.87 C 898.10 1058.63 898.11 1080.40 898.10 1102.16 C 895.71 1102.16 893.33 1102.16 890.97 1102.17 C 890.96 1080.40 890.96 1058.63 890.97 1036.87 Z" />
<path fill="#000000" opacity="1.00" d=" M 756.11 1054.08 C 761.93 1051.39 769.77 1051.90 774.41 1056.65 C 778.24 1060.72 779.01 1066.62 779.03 1071.99 C 779.03 1082.05 779.03 1092.10 779.02 1102.16 C 776.70 1102.16 774.38 1102.16 772.08 1102.17 C 772.05 1091.78 772.09 1081.40 772.06 1071.02 C 772.10 1066.89 771.05 1062.08 767.24 1059.81 C 762.50 1057.15 756.21 1058.76 752.69 1062.72 C 749.39 1066.25 748.11 1071.20 748.18 1075.95 C 748.16 1084.68 748.19 1093.42 748.18 1102.17 C 745.82 1102.16 743.47 1102.16 741.13 1102.17 C 741.12 1086.04 741.12 1069.92 741.13 1053.80 C 743.31 1053.79 745.50 1053.78 747.70 1053.80 C 747.71 1056.56 747.68 1059.33 747.71 1062.10 C 750.27 1059.20 752.42 1055.70 756.11 1054.08 Z" />
<path fill="#000000" opacity="1.00" d=" M 846.63 1055.67 C 853.03 1052.08 860.95 1051.79 867.98 1053.41 C 873.35 1054.70 877.11 1059.63 877.89 1064.96 C 879.70 1077.28 876.92 1089.96 879.68 1102.17 C 877.33 1102.14 874.99 1102.16 872.66 1102.26 C 871.72 1099.30 871.48 1096.20 871.46 1093.13 C 866.62 1103.29 852.24 1106.50 843.43 1099.64 C 836.34 1094.33 836.45 1082.11 843.96 1077.23 C 852.02 1071.92 862.17 1072.00 871.47 1072.10 C 871.46 1068.17 871.57 1063.48 868.19 1060.79 C 863.92 1057.60 857.98 1057.92 853.08 1059.22 C 849.55 1060.18 847.35 1063.36 846.30 1066.69 C 843.98 1066.36 841.67 1065.95 839.40 1065.43 C 840.83 1061.59 842.90 1057.71 846.63 1055.67 M 849.94 1081.07 C 845.14 1084.13 844.71 1092.15 849.50 1095.41 C 855.10 1099.03 863.03 1097.08 867.14 1092.07 C 870.65 1088.17 871.65 1082.75 871.48 1077.66 C 864.25 1077.44 856.27 1076.95 849.94 1081.07 Z" />
<path fill="#000000" opacity="1.00" d=" M 964.51 1059.52 C 969.96 1052.92 980.00 1050.56 987.78 1054.15 C 993.71 1056.99 996.83 1063.52 997.58 1069.79 C 995.35 1070.05 993.14 1070.36 990.93 1070.69 C 990.16 1065.28 986.90 1059.32 980.95 1058.61 C 974.57 1057.58 969.23 1062.92 967.69 1068.70 C 965.62 1076.31 965.65 1085.16 969.94 1092.04 C 972.90 1096.92 979.84 1098.84 984.77 1095.81 C 988.49 1093.66 990.19 1089.44 991.16 1085.47 C 993.31 1085.82 995.48 1086.22 997.65 1086.63 C 996.71 1091.29 994.86 1096.02 991.17 1099.20 C 983.93 1105.50 971.75 1104.72 965.25 1097.70 C 960.53 1092.72 958.73 1085.66 958.58 1078.96 C 958.41 1072.10 959.98 1064.86 964.51 1059.52 Z" />
<path fill="#000000" opacity="1.00" d=" M 1034.73 1054.74 C 1040.96 1052.10 1048.16 1051.83 1054.67 1053.52 C 1059.90 1054.92 1063.47 1059.82 1064.21 1065.04 C 1066.02 1077.33 1063.21 1090.00 1066.03 1102.17 C 1063.62 1102.16 1061.22 1102.16 1058.84 1102.18 C 1058.16 1099.21 1057.77 1096.19 1057.75 1093.17 C 1052.95 1103.18 1038.88 1106.42 1030.06 1099.87 C 1022.72 1094.71 1022.65 1082.25 1030.22 1077.28 C 1038.29 1071.90 1048.48 1072.06 1057.80 1072.05 C 1057.78 1068.07 1057.87 1063.28 1054.33 1060.64 C 1050.22 1057.73 1044.71 1057.96 1040.03 1059.03 C 1036.33 1059.85 1033.66 1062.99 1032.79 1066.58 C 1030.46 1066.34 1028.16 1066.01 1025.87 1065.64 C 1027.05 1060.92 1030.15 1056.64 1034.73 1054.74 M 1036.70 1080.76 C 1031.61 1083.61 1030.84 1091.82 1035.65 1095.29 C 1040.70 1098.74 1047.98 1097.44 1052.26 1093.31 C 1056.61 1089.39 1058.05 1083.31 1057.78 1077.65 C 1050.71 1077.43 1043.00 1077.00 1036.70 1080.76 Z" />
<path fill="#000000" opacity="1.00" d=" M 911.07 1053.80 C 913.37 1053.79 915.69 1053.79 918.01 1053.80 C 918.03 1064.19 917.99 1074.58 918.02 1084.97 C 917.98 1089.10 919.02 1093.93 922.87 1096.18 C 928.54 1099.27 935.97 1096.41 939.14 1091.05 C 942.30 1086.32 942.08 1080.43 942.01 1075.00 C 942.00 1067.93 942.00 1060.86 942.01 1053.80 C 944.32 1053.79 946.64 1053.79 948.97 1053.80 C 948.98 1069.92 948.98 1086.04 948.97 1102.17 C 946.77 1102.16 944.57 1102.15 942.39 1102.17 C 942.38 1099.38 942.40 1096.60 942.35 1093.82 C 939.70 1097.03 937.20 1100.71 933.13 1102.25 C 927.22 1104.53 919.47 1103.79 915.17 1098.75 C 911.77 1094.68 911.07 1089.13 911.06 1084.02 C 911.06 1073.94 911.06 1063.87 911.07 1053.80 Z" />
<path fill="#000000" opacity="1.00" d=" M 1007.50 1102.25 C 1007.27 1086.07 1007.22 1069.87 1007.52 1053.70 C 1009.81 1053.78 1012.11 1053.80 1014.41 1053.77 C 1014.54 1069.92 1014.61 1086.08 1014.37 1102.23 C 1012.07 1102.15 1009.78 1102.16 1007.50 1102.25 Z" />
</g>
</svg>
