<svg version="1.1" id="Layer_1" xmlns="http://www.w3.org/2000/svg" xmlns:xlink="http://www.w3.org/1999/xlink" x="0px" y="0px"
	 width="100%" viewBox="0 0 380 379" xml:space="preserve">
<path fill="#12A059" opacity="1.000000" stroke="none" 
	d="
M300.000000,380.000000 
	C289.979095,380.000000 279.958221,380.000000 269.566467,379.602539 
	C263.792847,377.632599 258.259369,376.406311 253.011185,374.424469 
	C235.314621,367.741547 220.128952,357.518250 209.138458,341.697266 
	C213.006042,340.862396 216.667480,340.577271 220.209381,339.768646 
	C267.049103,329.074768 302.538177,303.134705 325.667145,260.800842 
	C334.507202,244.620514 339.152313,227.043350 342.446899,209.128586 
	C345.937347,212.132919 349.294037,214.823685 352.303986,217.858353 
	C367.881927,233.564285 377.248169,252.234161 379.088684,274.477539 
	C379.162079,275.365021 380.337830,276.161255 381.000000,277.000000 
	C381.000000,282.022095 381.000000,287.044189 380.583954,292.455872 
	C379.448975,296.294006 378.673492,299.731873 378.020447,303.192841 
	C374.329834,322.752625 365.242828,339.635132 350.999390,353.246918 
	C337.202240,366.432220 320.772400,375.308868 301.515533,378.138702 
	C300.931763,378.224518 300.501709,379.356018 300.000000,380.000000 
z"/>
<path fill="#20409A" opacity="1.000000" stroke="none" 
	d="
M111.000000,380.000000 
	C100.979103,380.000000 90.958214,380.000000 80.540932,379.601929 
	C79.642555,378.834015 79.180061,378.218018 78.632805,378.130157 
	C63.849464,375.757233 50.558380,369.763336 38.708485,360.833282 
	C20.111496,346.818604 8.074861,328.389954 2.940752,305.556946 
	C2.727198,304.607208 1.666189,303.847992 0.999996,303.000000 
	C1.000000,290.979095 1.000000,278.958221 1.394821,266.544189 
	C2.161113,265.653961 2.751678,265.204865 2.872506,264.652893 
	C7.858891,241.873688 19.280020,223.185760 38.041954,209.541718 
	C38.390503,211.538696 38.685776,213.157318 39.110809,214.741135 
	C41.718597,224.458557 43.539581,234.482315 47.134922,243.821854 
	C58.271309,272.750610 76.440239,296.507050 101.925087,314.375122 
	C123.018463,329.164185 146.116501,338.899994 171.882416,341.520935 
	C168.841812,345.370209 166.306793,349.316833 162.971191,352.396301 
	C148.606064,365.658447 132.261063,375.215546 112.556923,378.144318 
	C111.959206,378.233124 111.515503,379.358093 111.000000,380.000000 
z"/>
<path fill="#20409A" opacity="1.000000" stroke="none" 
	d="
M381.000000,88.000000 
	C381.000000,93.022095 381.000000,98.044182 380.584473,103.479698 
	C379.702942,106.384705 379.266968,108.882324 378.766205,111.366898 
	C375.608856,127.032166 370.196686,141.826096 359.798859,154.144958 
	C354.583893,160.323441 348.098785,165.429810 342.133240,170.605621 
	C338.894623,157.731079 336.543152,144.980957 332.314209,132.887360 
	C327.151062,118.122261 318.861603,104.848221 308.837311,92.714668 
	C288.736145,68.383972 263.807159,51.431377 233.308411,42.942886 
	C225.564346,40.787537 217.734940,38.938808 210.088928,36.645981 
	C214.511612,32.038246 218.625336,27.553343 223.100739,23.464300 
	C234.767471,12.804729 248.501358,6.147275 263.949310,2.911695 
	C264.731995,2.747763 265.320892,1.658451 266.000000,0.999999 
	C278.354218,1.000000 290.708466,1.000000 303.449646,1.389405 
	C304.334351,2.155981 304.782867,2.755604 305.336914,2.878138 
	C324.734192,7.167976 341.244843,16.431795 354.680389,31.156267 
	C368.640015,46.455067 377.203979,64.140678 379.079285,84.919991 
	C379.176361,85.995674 380.335388,86.975525 381.000000,88.000000 
z"/>
<path fill="#12A059" opacity="1.000000" stroke="none" 
	d="
M0.999998,114.000000 
	C1.000000,101.979103 1.000000,89.958214 1.394072,77.569763 
	C2.127202,76.862358 2.691173,76.569336 2.773112,76.175926 
	C7.295891,54.460724 17.936216,36.473022 35.122643,22.331131 
	C46.756668,12.758050 59.719517,6.062126 74.504120,2.935830 
	C75.431084,2.739818 76.172340,1.665629 77.000000,1.000000 
	C89.354225,1.000000 101.708458,1.000000 114.423210,1.388119 
	C115.278740,2.155319 115.718582,2.679389 116.276978,2.891821 
	C125.255104,6.307429 134.627441,8.935539 143.144333,13.253295 
	C154.359756,18.939119 163.553680,27.465843 170.550552,37.776077 
	C156.147079,39.185040 142.700363,42.924107 129.993500,48.614395 
	C87.516273,67.636208 58.729633,99.369484 44.174595,143.624191 
	C41.257748,152.492905 39.916153,161.879684 37.554520,170.872406 
	C19.388916,156.505707 7.629403,138.472336 2.913999,115.988701 
	C2.753947,115.225571 1.659114,114.658478 0.999998,114.000000 
z"/>
<path fill="#1EC0EB" opacity="1.000000" stroke="none" 
	d="
M170.550552,37.776077 
	C180.534409,49.507984 186.584549,62.849003 189.029037,77.828323 
	C189.281357,79.374542 189.893250,80.862068 190.513260,82.972328 
	C193.030243,66.584175 198.535721,52.129105 208.136780,39.341454 
	C208.615387,38.704002 208.920517,37.936310 209.625580,37.089233 
	C217.734940,38.938808 225.564346,40.787537 233.308411,42.942886 
	C263.807159,51.431377 288.736145,68.383972 308.837311,92.714668 
	C318.861603,104.848221 327.151062,118.122261 332.314209,132.887360 
	C336.543152,144.980957 338.894623,157.731079 342.133240,170.605621 
	C334.358459,178.470703 324.640228,182.507019 314.656311,185.910599 
	C310.398651,187.362061 305.854492,187.960938 301.465851,189.049347 
	C300.423615,189.307846 299.483124,189.976501 298.232086,190.584717 
	C314.547089,192.885818 328.862000,198.974091 341.997314,208.653351 
	C339.152313,227.043350 334.507202,244.620514 325.667145,260.800842 
	C302.538177,303.134705 267.049103,329.074768 220.209381,339.768646 
	C216.667480,340.577271 213.006042,340.862396 209.138458,341.697266 
	C198.869797,328.913300 192.694183,314.244690 190.537567,296.531433 
	C187.279694,313.284821 182.338913,328.070892 172.334076,341.041870 
	C146.116501,338.899994 123.018463,329.164185 101.925087,314.375122 
	C76.440239,296.507050 58.271309,272.750610 47.134922,243.821854 
	C43.539581,234.482315 41.718597,224.458557 39.110809,214.741135 
	C38.685776,213.157318 38.390503,211.538696 38.041954,209.541718 
	C50.994831,198.648026 66.019569,193.127228 82.442093,190.304993 
	C66.225677,187.539597 51.550755,181.118378 38.016655,171.342270 
	C39.916153,161.879684 41.257748,152.492905 44.174595,143.624191 
	C58.729633,99.369484 87.516273,67.636208 129.993500,48.614395 
	C142.700363,42.924107 156.147079,39.185040 170.550552,37.776077 
M143.486221,178.009384 
	C132.314392,182.465302 121.142563,186.921204 111.754074,190.665833 
	C154.581879,199.509872 181.318954,226.651367 190.564590,271.934052 
	C193.694992,250.310928 202.495697,232.065689 217.474976,217.171570 
	C232.305786,202.425049 250.316391,193.476578 272.073975,190.515457 
	C226.419281,180.774048 199.004776,154.112335 190.249023,108.798233 
	C187.666779,122.100784 183.689713,134.991714 176.115234,146.609344 
	C167.769516,159.409866 157.473618,170.053253 143.486221,178.009384 
z"/>
</svg>